<?xml version="1.0" standalone="no"?>
<!DOCTYPE svg PUBLIC "-//W3C//DTD SVG 1.1//EN" "http://www.w3.org/Graphics/SVG/1.1/DTD/svg11.dtd" >
<!--
2013-9-30: Created.
-->
<svg>
<metadata>
Created by iconfont
</metadata>
<defs>

<font id="iconfont-mult" horiz-adv-x="1024" >
  <font-face
    font-family="iconfont-mult"
    font-weight="500"
    font-stretch="normal"
    units-per-em="1024"
    ascent="896"
    descent="-128"
  />
    <missing-glyph />
    
    <glyph glyph-name="nav_log_24" unicode="&#58997;" d="M725.333333 554.666667H298.666667v-64h426.666666V554.666667z m0-149.333334H298.666667V341.333333h426.666666v64zM320 836.266667c0 9.386667 7.68 17.066667 17.066667 17.066666h29.866666c9.386667 0 17.066667-7.68 17.066667-17.066666V768h256V836.266667c0 9.386667 7.68 17.066667 17.066667 17.066666h29.866666c9.386667 0 17.066667-7.68 17.066667-17.066666V768H853.333333a42.666667 42.666667 0 0 0 42.666667-42.666667v-725.333333a42.666667 42.666667 0 0 0-42.666667-42.666667H170.666667a42.666667 42.666667 0 0 0-42.666667 42.666667V725.333333a42.666667 42.666667 0 0 0 42.666667 42.666667h149.333333V836.266667z m-128-132.266667v-682.666667h640v682.666667h-640z"  horiz-adv-x="1024" />

    
    <glyph glyph-name="nav_connect_BI_24" unicode="&#58998;" d="M682.666667 768a42.666667 42.666667 0 0 0 42.666666 42.666667h128a42.666667 42.666667 0 0 0 42.666667-42.666667v-597.333333a42.666667 42.666667 0 0 0-42.666667-42.666667h-128a42.666667 42.666667 0 0 0-42.666666 42.666667V768z m64-576h85.333333v554.666667h-85.333333v-554.666667zM448 640a42.666667 42.666667 0 0 1-42.666667-42.666667v-426.666666a42.666667 42.666667 0 0 1 42.666667-42.666667h128a42.666667 42.666667 0 0 1 42.666667 42.666667V597.333333a42.666667 42.666667 0 0 1-42.666667 42.666667h-128z m21.333333-64h85.333334v-384h-85.333334v384zM170.666667 490.666667h128a42.666667 42.666667 0 0 0 42.666666-42.666667V170.666667a42.666667 42.666667 0 0 0-42.666666-42.666667H170.666667a42.666667 42.666667 0 0 0-42.666667 42.666667v277.333333a42.666667 42.666667 0 0 0 42.666667 42.666667z m21.333333-64v-234.666667h85.333333V426.666667h-85.333333zM128-10.666667h768v64H128v-64z"  horiz-adv-x="1024" />

    
    <glyph glyph-name="nav_configuration_24" unicode="&#58999;" d="M640 725.333333h64v-213.333333H640V725.333333zM640 256h64v-213.333333H640v213.333333zM85.333333 650.666667h490.666667v-64H85.333333v64zM938.666667 586.666667h-170.666667v64h170.666667v-64zM192 352H85.333333v64h106.666667v-64zM384 352h554.666667v64H384v-64zM85.333333 117.333333h490.666667v64H85.333333v-64zM938.666667 117.333333h-170.666667v64h170.666667v-64zM256 490.666667h64v-213.333334H256v213.333334z"  horiz-adv-x="1024" />

    
    <glyph glyph-name="nav_workspace_24" unicode="&#59000;" d="M192 768A64 64 0 0 1 128 704v-213.333333A64 64 0 0 1 192 426.666667h213.333333A64 64 0 0 1 469.333333 490.666667v213.333333A64 64 0 0 1 405.333333 768h-213.333333z m213.333333-64v-213.333333h-213.333333v213.333333h213.333333zM618.666667 768A64 64 0 0 1 554.666667 704v-213.333333a64 64 0 0 1 64-64h213.333333A64 64 0 0 1 896 490.666667v213.333333A64 64 0 0 1 832 768h-213.333333z m213.333333-64v-213.333333h-213.333333v213.333333h213.333333zM128 277.33333300000004A64 64 0 0 0 192 341.33333300000004h213.333333a64 64 0 0 0 64-64v-213.333333A64 64 0 0 0 405.333333 0h-213.333333A64 64 0 0 0 128 64v213.333333z m64 0v-213.333333h213.333333v213.333333h-213.333333zM832 277.33333300000004v-213.333333h-213.333333v213.333333h213.333333z m-213.333333 64a64 64 0 0 1-64-64v-213.333333a64 64 0 0 1 64-64h213.333333a64 64 0 0 1 64 64v213.333333a64 64 0 0 1-64 64h-213.333333z"  horiz-adv-x="1024" />

    
    <glyph glyph-name="nav_quota_management_24" unicode="&#59001;" d="M448 320V682.666667a362.666667 362.666667 0 1 1 362.666667-362.666667h-362.666667z m291.712-64A298.709333 298.709333 0 1 0 384 611.712V256h355.712zM533.333333 810.666667a405.333333 405.333333 0 0 0 405.333334-405.333334h-405.333334V810.666667z m64-341.333334h271.274667A341.248 341.248 0 0 1 597.333333 740.608V469.333333z"  horiz-adv-x="1024" />

    
    <glyph glyph-name="nav_query_history_24" unicode="&#59002;" d="M768 158.165333V277.333333h-42.666667v-136.832l91.562667-91.605333 30.208 30.208L768 158.165333zM981.333333 149.333333a234.666667 234.666667 0 1 0-469.333333 0 234.666667 234.666667 0 0 0 469.333333 0z m-64 0a170.666667 170.666667 0 1 1-341.333333 0 170.666667 170.666667 0 0 1 341.333333 0zM746.666667 746.666667h-512v-725.333334h256V-42.666667h-256A64 64 0 0 0 170.666667 21.333333v725.333334A64 64 0 0 0 234.666667 810.666667h512A64 64 0 0 0 810.666667 746.666667v-298.666667h-64v298.666667zM298.666667 640h170.666666v-64H298.666667V640zM298.666667 490.666667h213.333333V426.666667H298.666667V490.666667zM298.666667 341.333333h128v-64H298.666667V341.333333z"  horiz-adv-x="1024" />

    
    <glyph glyph-name="nav_query_241" unicode="&#59003;" d="M746.666667 746.666667h-512v-725.333334h341.333333V-42.666667h-341.333333A64 64 0 0 0 170.666667 21.333333v725.333334A64 64 0 0 0 234.666667 810.666667h512A64 64 0 0 0 810.666667 746.666667v-298.666667h-64v298.666667zM552.277333 343.722667a181.333333 181.333333 0 0 1 231.850667-277.12l130.218667-130.218667 45.226666 45.269333-130.176 130.218667a181.376 181.376 0 0 1-277.12 231.850667z m45.269334-211.2a117.333333 117.333333 0 1 0 165.973333 165.930666 117.333333 117.333333 0 0 0-165.973333-165.973333zM298.666667 640h170.666666v-64H298.666667V640zM298.666667 490.666667h213.333333V426.666667H298.666667V490.666667zM298.666667 341.333333h128v-64H298.666667V341.333333z"  horiz-adv-x="1024" />

    
    <glyph glyph-name="tieredstorage_22" unicode="&#58993;" d="M139.636364 756.363636m186.181818 0l372.363636 0q186.181818 0 186.181818-186.181818l0-372.363636q0-186.181818-186.181818-186.181818l-372.363636 0q-186.181818 0-186.181818 186.181818l0 372.363636q0 186.181818 186.181818 186.181818ZM465.454545 556.683636v-98.816l-46.545454 18.850909V598.109091a18.618182 18.618182 0 0 0 25.6 17.221818l276.945454-112.081454a37.236364 37.236364 0 0 0 23.272728-34.536728v-211.037091a18.618182 18.618182 0 0 0-25.6-17.221818L651.636364 267.682909v50.222546l46.545454-18.85091v163.374546l-232.727273 94.161454zM305.245091 475.648C292.957091 480.628364 279.272727 472.110545 279.272727 459.496727v-225.512727c0-7.028364 4.421818-13.405091 11.264-16.151273l288.581818-116.829091c12.288-4.980364 25.972364 3.537455 25.972364 16.151273v213.922909a35.188364 35.188364 0 0 1-22.574545 32.302546L305.245091 475.694545z"  horiz-adv-x="1024" />

    
    <glyph glyph-name="tieredstorage_16" unicode="&#58994;" d="M139.648 756.352m128 0l488.704 0q128 0 128-128l0-488.704q0-128-128-128l-488.704 0q-128 0-128 128l0 488.704q0 128 128 128ZM482.88 530.752v-79.936l-64 25.92V587.712a25.6 25.6 0 0 0 35.2 23.744l258.688-104.704a51.2 51.2 0 0 0 32-47.424v-191.296a25.6 25.6 0 0 0-35.2-23.68l-57.92 23.36V334.08l-0.064 2.816 29.12-11.84V450.688l-197.76 80.064zM305.28 475.648c-12.352 4.992-25.984-3.52-25.984-16.192v-225.472c0-7.04 4.416-13.44 11.264-16.192l288.576-116.8c12.288-4.992 25.984 3.52 25.984 16.192V331.072a35.2 35.2 0 0 1-22.592 32.32L305.216 475.648z"  horiz-adv-x="1024" />

    
    <glyph glyph-name="finished_24" unicode="&#58990;" d="M512-42.66666699999996c235.648 0 426.666667 191.018667 426.666667 426.666667S747.648 810.666667 512 810.666667 85.333333 619.648 85.333333 384s191.018667-426.666667 426.666667-426.666667zM755.498667 481.834667L508.330667 234.66666699999996a85.333333 85.333333 0 0 0-120.661334 0l-119.168 119.168 60.330667 60.330666 119.168-119.168 247.168 247.168 60.330667-60.330666z"  horiz-adv-x="1024" />

    
    <glyph glyph-name="info_24" unicode="&#58979;" d="M512-42.66666699999996c235.648 0 426.666667 191.018667 426.666667 426.666667S747.648 810.666667 512 810.666667 85.333333 619.648 85.333333 384s191.018667-426.666667 426.666667-426.666667zM554.666667 170.66666699999996h-85.333334v256a42.666667 42.666667 0 1 0 85.333334 0v-256zM554.666667 554.666667a42.666667 42.666667 0 1 0-85.333334 0 42.666667 42.666667 0 0 0 85.333334 0z"  horiz-adv-x="1024" />

    
    <glyph glyph-name="nav_data_storge_24" unicode="&#58980;" d="M128 768a42.666667 42.666667 0 0 0 42.666667 42.666667h682.666666a42.666667 42.666667 0 0 0 42.666667-42.666667v-768a42.666667 42.666667 0 0 0-42.666667-42.666667H170.666667a42.666667 42.666667 0 0 0-42.666667 42.666667V768z m64-213.333333h640V746.666667h-640V554.666667z m0-288h640v234.666666h-640v-234.666666z m640-53.333334h-640v-192h640V213.333333zM384 682.666667H256v-64h128V682.666667z m256-256h128v-64h-128V426.666667z m-384-277.333334h128V85.333333H256v64z"  horiz-adv-x="1024" />

    
    <glyph glyph-name="nav_homepage_24" unicode="&#58981;" d="M576 234.666667h-128v-213.333334h128v213.333334z m-128 64h128a64 64 0 0 0 64-64v-213.333334a64 64 0 0 0-64-64h-128A64 64 0 0 0 384 21.333333v213.333334a64 64 0 0 0 64 64zM810.666667 424.106667v-402.773334a64 64 0 0 0-64-64h-469.333334A64 64 0 0 0 213.333333 21.333333v402.773334l-105.386666-105.386667-45.226667 45.226667 414.592 414.592a49.066667 49.066667 0 0 0 69.376 0l414.592-414.592-45.226667-45.226667L810.666667 424.106667z m-64 64L512 722.773333l-234.666667-234.666666V21.333333h469.333334V488.106667z"  horiz-adv-x="1024" />

    
    <glyph glyph-name="error_24" unicode="&#58982;" d="M512-42.66666699999996c235.648 0 426.666667 191.018667 426.666667 426.666667S747.648 810.666667 512 810.666667 85.333333 619.648 85.333333 384s191.018667-426.666667 426.666667-426.666667zM451.669333 384L300.8 534.869333 361.130667 595.2 512 444.330667l150.869333 150.869333 60.330667-60.373333L572.330667 384l150.869333-150.869333-60.330667-60.330667L512 323.66933300000005 361.130667 172.79999999999995 300.8 233.13066700000002 451.669333 384z"  horiz-adv-x="1024" />

    
    <glyph glyph-name="nav_model_24" unicode="&#58983;" d="M661.333333 725.333333h128A64 64 0 0 0 853.333333 661.333333v-128a64 64 0 0 0-64-64h-146.773333L426.666667 253.44v-189.44A64 64 0 0 0 362.666667 0h-170.666667A64 64 0 0 0 128 64v170.666667A64 64 0 0 0 192 298.666667h189.44L597.333333 514.56V661.333333A64 64 0 0 0 661.333333 725.333333z m128-64h-128v-128h128v128z m-426.666666-426.666666h-170.666667v-170.666667h170.666667v170.666667zM149.333333 810.666667h298.666667A64 64 0 0 0 512 746.666667v-317.44L557.226667 384h317.44a64 64 0 0 0 64-64v-298.666667a64 64 0 0 0-64-64h-298.666667a64 64 0 0 0-64 64v317.44L466.773333 384H149.333333A64 64 0 0 0 85.333333 448v298.666667A64 64 0 0 0 149.333333 810.666667z m298.666667-64h-298.666667v-298.666667h298.666667v298.666667z m426.666667-426.666667h-298.666667v-298.666667h298.666667v298.666667z"  horiz-adv-x="1024" />

    
    <glyph glyph-name="nav_monitor_24" unicode="&#58984;" d="M554.666667 640v-64H213.333333V640h341.333334zM426.666667 512H213.333333v-64h213.333334V512zM768 384H213.333333v-64h554.666667V384zM106.666667 810.666667A64 64 0 0 1 42.666667 746.666667v-554.666667A64 64 0 0 1 106.666667 128h373.333333v-106.666667H256V-42.666667h512v64h-224V128h373.333333a64 64 0 0 1 64 64v554.666667A64 64 0 0 1 917.333333 810.666667h-810.666666z m810.666666-64v-554.666667h-810.666666v554.666667h810.666666z"  horiz-adv-x="1024" />

    
    <glyph glyph-name="nav_notebook_24" unicode="&#58985;" d="M853.333333-25.6a17.066667 17.066667 0 0 0-17.066666-17.066667H277.333333A106.666667 106.666667 0 0 0 170.666667 64V682.666667a128 128 0 0 0 128 128h537.6c9.386667 0 17.066667-7.68 17.066666-17.066667v-819.2zM234.666667 161.792a106.325333 106.325333 0 0 0 42.666666 8.874667h512V746.666667H298.666667A64 64 0 0 1 234.666667 682.666667v-520.874667z m554.666666-55.125333h-512a42.666667 42.666667 0 1 1 0-85.333334h512v85.333334zM298.666667 597.333333h426.666666v-64H298.666667V597.333333z"  horiz-adv-x="1024" />

    
    <glyph glyph-name="nav_setting_24" unicode="&#58986;" d="M709.717333 41.557333H314.282667L116.565333 384l197.717334 342.442667h395.434666L907.434667 384l-197.717334-342.442667z m253.141334 310.442667a64 64 0 0 1 0 64l-197.717334 342.442667a64 64 0 0 1-55.424 32H314.282667a64 64 0 0 1-55.424-32L61.141333 416a64 64 0 0 1 0-64l197.717334-342.442667a64 64 0 0 1 55.424-32h395.434666a64 64 0 0 1 55.424 32l197.717334 342.442667zM725.333333 384a213.333333 213.333333 0 1 0-426.666666 0 213.333333 213.333333 0 0 0 426.666666 0z m-213.333333-149.333333a149.333333 149.333333 0 1 1 0 298.666666 149.333333 149.333333 0 0 1 0-298.666666z"  horiz-adv-x="1024" />

    
    <glyph glyph-name="nav_user_management_24" unicode="&#58987;" d="M896 181.333333h-298.666667v64h298.666667v-64zM426.666667 426.666667c94.293333 0 170.666667 119.04 170.666666 213.333333a170.666667 170.666667 0 0 1-341.333333 0c0-94.293333 76.373333-213.333333 170.666667-213.333333z m69.333333 109.482666C471.68 503.509333 445.866667 490.666667 426.666667 490.666667c-19.2 0-45.013333 12.8-69.333334 45.482666C333.568 568.192 320 608.426667 320 640a106.666667 106.666667 0 0 0 213.333333 0c0-31.573333-13.568-71.808-37.333333-103.850667zM533.333333 369.664A396.074667 396.074667 0 0 1 426.666667 384c-184.704 0-335.146667-122.154667-341.162667-298.666667h64.085333c5.930667 134.4 120.533333 234.666667 277.077334 234.666667 38.4 0 74.282667-6.016 106.666666-17.109333v66.773333zM597.333333 373.333333v-64h298.666667v64h-298.666667zM597.333333 117.333333v-64h298.666667v64h-298.666667z"  horiz-adv-x="1024" />

    
    <glyph glyph-name="nav_dashboard_24" unicode="&#58988;" d="M558.933333 146.944l-23.466666 331.861333h-46.933334l-23.466666-331.861333h93.866666zM230.4-42.666667h563.2a475.008 475.008 0 0 1 187.733333 379.264C981.333333 598.4 771.2 810.666667 512 810.666667S42.666667 598.4 42.666667 336.597333C42.666667 181.504 116.437333 43.818667 230.4-42.666667z m538.666667 71.125334H254.933333a403.754667 403.754667 0 0 0-141.866666 308.138666c0 222.549333 178.602667 402.944 398.933333 402.944s398.933333-180.394667 398.933333-402.944a403.754667 403.754667 0 0 0-141.866666-308.138666zM480 581.034667v85.333333h64v-85.333333h-64zM335.658667 513.322667L285.44 582.4l51.754667 37.632L387.413333 550.954667l-51.754666-37.632zM258.645333 373.717333l-81.152 26.368 19.754667 60.842667 81.152-26.368-19.754667-60.842667zM846.506667 400.085333l-81.152-26.368-19.754667 60.842667 81.152 26.368 19.754667-60.842667zM738.517333 582.4L688.384 513.28l-51.797333 37.632 50.176 69.034667 51.754666-37.632z"  horiz-adv-x="1024" />

    
    <glyph glyph-name="nav_SQL_lab_24" unicode="&#58989;" d="M229.333333 240h565.333334v-53.333333H229.333333v53.333333zM389.589333 789.333333h244.821334l14.677333-51.413333-19.669333-9.685333a72.533333 72.533333 0 0 1-40.618667-65.109334v-198.826666c0-21.034667 6.186667-41.6 17.834667-59.093334l233.216-350.72a21.333333 21.333333 0 0 0-17.749334-33.152H201.898667a21.333333 21.333333 0 0 0-17.749334 33.152l233.216 350.72a106.666667 106.666667 0 0 1 17.834667 59.050667V663.125333a72.533333 72.533333 0 0 1-40.618667 65.109334l-19.669333 9.685333 14.677333 51.413333zM373.504 853.333333a42.666667 42.666667 0 0 1-41.002667-30.933333l-24.021333-84.053333a42.666667 42.666667 0 0 1 22.229333-50.048l35.712-17.493334a8.533333 8.533333 0 0 0 4.778667-7.68v-198.826666a42.666667 42.666667 0 0 0-7.125333-23.68l-233.258667-350.72C93.141333 33.237333 133.802667-42.666667 201.898667-42.666667h620.202666c68.096 0 108.8 75.861333 71.04 132.608l-233.216 350.72a42.666667 42.666667 0 0 0-7.125333 23.594667V663.125333a8.533333 8.533333 0 0 0 4.778667 7.68l35.712 17.493334a42.666667 42.666667 0 0 1 22.229333 50.005333l-24.021333 84.053333A42.666667 42.666667 0 0 1 650.496 853.333333H373.504z"  horiz-adv-x="1024" />

    
    <glyph glyph-name="warning_24" unicode="&#58991;" d="M62.293333 37.46133299999997L489.386667 852.693333a25.6 25.6 0 0 0 45.354666 0L961.706667 37.46133299999997a25.6 25.6 0 0 0-22.698667-37.461333H84.992a25.6 25.6 0 0 0-22.698667 37.461333zM469.333333 597.333333h85.333334v-298.666666a42.666667 42.666667 0 1 0-85.333334 0V597.333333zM469.333333 170.66666699999996a42.666667 42.666667 0 1 0 85.333334 0 42.666667 42.666667 0 0 0-85.333334 0z"  horiz-adv-x="1024" />

    
    <glyph glyph-name="nav_query_24" unicode="&#58992;" d="M298.666667 640v-64h384V640H298.666667zM298.666667 512v-64h256V512H298.666667zM298.666667 384h149.333333v-64H298.666667V384zM746.666667 746.666667h-512v-725.333334H554.666667V-42.666667H234.666667A64 64 0 0 0 170.666667 21.333333v725.333334A64 64 0 0 0 234.666667 810.666667h512A64 64 0 0 0 810.666667 746.666667V426.666667h-64V746.666667zM552.277333 343.722667a181.333333 181.333333 0 0 1 231.850667-277.12l130.218667-130.218667 45.226666 45.269333-130.176 130.218667a181.376 181.376 0 0 1-277.12 231.850667z m45.269334-211.2a117.333333 117.333333 0 1 0 165.973333 165.930666 117.333333 117.333333 0 0 0-165.973333-165.973333z"  horiz-adv-x="1024" />

    
    <glyph glyph-name="finished_22" unicode="&#58972;" d="M930.909091 384a418.909091 418.909091 0 1 0-837.818182 0 418.909091 418.909091 0 0 0 837.818182 0zM658.944 540.020364l55.761455-55.389091-217.227637-215.924364a58.181818 58.181818 0 0 0-82.013091 0l-106.123636 105.518546 55.714909 55.435636 91.415273-90.856727 202.472727 201.216z"  horiz-adv-x="1024" />

    
    <glyph glyph-name="info_22" unicode="&#58973;" d="M930.909091 384a418.909091 418.909091 0 1 0-837.818182 0 418.909091 418.909091 0 0 0 837.818182 0zM558.545455 151.27272700000003h-93.09091v279.272728a46.545455 46.545455 0 1 0 93.09091 0v-279.272728zM465.454545 570.181818a46.545455 46.545455 0 1 1 93.09091 0 46.545455 46.545455 0 0 1-93.09091 0z"  horiz-adv-x="1024" />

    
    <glyph glyph-name="warning_22" unicode="&#58974;" d="M59.112727 80.802909L498.688 872.029091a15.220364 15.220364 0 0 0 26.624 0l439.575273-791.226182a15.220364 15.220364 0 0 0-13.312-22.621091H72.424727a15.220364 15.220364 0 0 0-13.312 22.621091zM465.454545 616.727273h93.09091v-279.272728a46.545455 46.545455 0 1 0-93.09091 0V616.727273zM558.545455 197.81818199999998a46.545455 46.545455 0 1 1-93.09091 0 46.545455 46.545455 0 0 1 93.09091 0z"  horiz-adv-x="1024" />

    
    <glyph glyph-name="error_22" unicode="&#58975;" d="M930.909091 384a418.909091 418.909091 0 1 0-837.818182 0 418.909091 418.909091 0 0 0 837.818182 0zM505.204364 440.180364L358.725818 586.658909l-49.338182-49.384727 146.432-146.478546L309.341091 244.36363600000004l49.384727-49.338181 146.478546 146.432L651.636364 194.97890900000004 700.974545 244.36363600000004l-146.432 146.432 146.478546 146.478546L651.636364 586.6123640000001l-146.432-146.432z"  horiz-adv-x="1024" />

    
    <glyph glyph-name="table_er_diagram_22" unicode="&#58977;" d="M139.636364 756.363636m186.181818 0l372.363636 0q186.181818 0 186.181818-186.181818l0-372.363636q0-186.181818-186.181818-186.181818l-372.363636 0q-186.181818 0-186.181818 186.181818l0 372.363636q0 186.181818 186.181818 186.181818ZM558.545455 583.4938179999999c0 18.338909 14.894545 33.233455 33.233454 33.233455h119.714909c18.338909 0 33.233455-14.894545 33.233455-33.233455v-73.169454c0-18.338909-14.894545-33.233455-33.233455-33.233455h-119.714909A33.233455 33.233455 0 0 0 558.545455 510.324364V583.4938179999999zM558.545455 257.67563600000005c0 18.338909 14.894545 33.233455 33.233454 33.233455h119.714909c18.338909 0 33.233455-14.894545 33.233455-33.233455v-73.169454c0-18.338909-14.894545-33.233455-33.233455-33.233455h-119.714909a33.233455 33.233455 0 0 0-33.233454 33.233455v73.169454zM465.454545 523.636364a46.545455 46.545455 0 0 0 46.545455 46.545454h23.272727v-46.545454H512v-279.272728h23.272727v-46.545454H512a46.545455 46.545455 0 0 0-46.545455 46.545454v116.363637H418.909091v-13.312c0-18.338909-14.894545-33.233455-33.233455-33.233455H265.960727A33.233455 33.233455 0 0 0 232.727273 347.41527299999996v73.169454c0 18.338909 14.894545 33.233455 33.233454 33.233455h119.714909c18.338909 0 33.233455-14.894545 33.233455-33.233455v-13.312h46.545454V523.636364z"  horiz-adv-x="1024" />

    
    <glyph glyph-name="peding_22" unicode="&#58978;" d="M512 663.272727v-269.637818l156.113455-132.794182-32.954182-32.954182L465.454545 374.365091V663.272727h46.545455zM930.909091 384a418.909091 418.909091 0 1 0-837.818182 0 418.909091 418.909091 0 0 0 837.818182 0z m-46.545455 0a372.363636 372.363636 0 1 1-744.727272 0 372.363636 372.363636 0 0 1 744.727272 0z"  horiz-adv-x="1024" />

    
    <glyph glyph-name="error_16" unicode="&#58963;" d="M960 384A448 448 0 1 0 64 384a448 448 0 0 0 896 0zM512 451.84L374.656 589.312l-67.904-67.84L444.096 384l-137.344-137.344 67.84-67.904L512 316.096l137.344-137.344 67.904 67.84L579.904 384l137.344 137.344-67.84 67.904L512 451.904z"  horiz-adv-x="1024" />

    
    <glyph glyph-name="discarded_16" unicode="&#58964;" d="M224 727.168A446.72 446.72 0 0 1 64 384a448 448 0 1 1 160 343.168z m17.216-70.912l488-588.992a384 384 0 0 0-488 588.992z m537.6-548.48L290.112 697.472a384 384 0 0 0 488.576-589.696z"  horiz-adv-x="1024" />

    
    <glyph glyph-name="stopped_16" unicode="&#58965;" d="M512 384m-448 0a448 448 0 1 1 896 0 448 448 0 1 1-896 0ZM384 576h64v-384H384zM576 576h64v-384H576z"  horiz-adv-x="1024" />

    
    <glyph glyph-name="info_16" unicode="&#58966;" d="M960 384A448 448 0 1 0 64 384a448 448 0 0 0 896 0zM576 128H448V384a64 64 0 0 0 128 0v-256zM448 576a64 64 0 1 1 128 0 64 64 0 0 1-128 0z"  horiz-adv-x="1024" />

    
    <glyph glyph-name="warning_16" unicode="&#58967;" d="M21.888 38.27200000000005L489.728 857.152a25.6 25.6 0 0 0 44.48 0L1002.112 38.39999999999998a25.6 25.6 0 0 0-22.208-38.336H44.096a25.6 25.6 0 0 0-22.208 38.272zM448 640h128v-256a64 64 0 0 0-128 0V640zM576 192a64 64 0 1 1-128 0 64 64 0 0 1 128 0z"  horiz-adv-x="1024" />

    
    <glyph glyph-name="finished_16" unicode="&#58968;" d="M960 384A448 448 0 1 0 64 384a448 448 0 0 0 896 0zM749.248 489.344l-67.84 67.904L448 323.904 342.656 429.248l-67.904-67.84 116.672-116.736a80 80 0 0 1 113.152 0l244.672 244.672z"  horiz-adv-x="1024" />

    
    <glyph glyph-name="pending_16" unicode="&#58969;" d="M512 384V640c-43.776 1.728-21.12 1.92-32 1.92-10.88 0.064-21.504-0.64-32-1.92v-285.952l238.208-157.632a257.28 257.28 0 0 1 41.152 49.088L512 384zM512-64A448 448 0 1 1 512 832a448 448 0 0 1 0-896z m0 64A384 384 0 1 0 512 768a384 384 0 0 0 0-768z"  horiz-adv-x="1024" />

    
    <glyph glyph-name="queued_16" unicode="&#58970;" d="M768 768H256v-119.872a128 128 0 0 1 28.16-80.064l158.272-123.52a76.8 76.8 0 0 0 0-121.088l-158.272-123.52A128 128 0 0 1 256 119.872V0h512v119.872c0 8.128-3.072 19.84-12.16 35.84a294.144 294.144 0 0 1-33.088 45.12L577.472 325.76a76.8 76.8 0 0 0 0 116.48l145.28 124.928c13.12 15.232 24.704 30.272 33.088 45.056 9.088 16 12.16 27.776 12.16 35.904V768z m0-246.272l-148.736-128a12.8 12.8 0 0 1 0-19.456l148.736-128c30.656-35.008 64-79.872 64-126.4V0a64 64 0 0 0-64-64H256a64 64 0 0 0-64 64v119.872a192 192 0 0 0 43.52 121.792 54.464 54.464 0 0 0 8.768 8.32l158.72 123.904a12.8 12.8 0 0 1 0 20.224l-158.72 123.84a54.848 54.848 0 0 0-8.704 8.384A192 192 0 0 0 192 648.128V768a64 64 0 0 0 64 64h512a64 64 0 0 0 64-64v-119.872c0-46.464-33.344-91.392-64-126.4zM320 89.6a38.4 38.4 0 0 0 38.4 38.4h307.2a38.4 38.4 0 0 0 38.4-38.4v-25.6H320v25.6z"  horiz-adv-x="1024" />

    
    <glyph glyph-name="running_16" unicode="&#58971;" d="M896 384a384 384 0 1 0-384 384V832a448 448 0 1 1 448-448h-64z"  horiz-adv-x="1024" />

    


  </font>
</defs>
</svg>
